<svg width="36" height="44" viewBox="0 0 36 44" fill="none" xmlns="http://www.w3.org/2000/svg">
<path d="M28 8H8V12H28V8Z" fill="white"/>
<path d="M8 16H12V20H8V16Z" fill="white"/>
<path d="M12 24H8V28H12V24Z" fill="white"/>
<path d="M8 32H12V36H8V32Z" fill="white"/>
<path d="M20 16H16V20H20V16Z" fill="white"/>
<path d="M16 24H20V28H16V24Z" fill="white"/>
<path d="M20 32H16V36H20V32Z" fill="white"/>
<path d="M24 16H28V20H24V16Z" fill="white"/>
<path d="M28 24H24V36H28V24Z" fill="white"/>
<path fill-rule="evenodd" clip-rule="evenodd" d="M0 4C0 1.79086 1.79086 0 4 0H32C34.2092 0 36 1.79086 36 4V40C36 42.2092 34.2092 44 32 44H4C1.79086 44 0 42.2092 0 40V4ZM4 4H32V40H4V4Z" fill="white"/>
</svg>
