<svg width="39" height="37" viewBox="0 0 39 37" fill="none" xmlns="http://www.w3.org/2000/svg">
<path d="M25.9059 27.9148C29.2196 27.9148 31.9059 25.2285 31.9059 21.9148C31.9059 18.6011 29.2196 15.9148 25.9059 15.9148C22.5922 15.9148 19.9059 18.6011 19.9059 21.9148C19.9059 25.2285 22.5922 27.9148 25.9059 27.9148Z" stroke="white" stroke-width="2" stroke-linecap="round" stroke-linejoin="round"/>
<path d="M21.9059 26.9148V35.9148L25.9059 32.9148L29.9059 35.9148V26.9148" stroke="white" stroke-width="2" stroke-linecap="round" stroke-linejoin="round"/>
<path d="M15.9059 29.9148H5.90588C4.84502 29.9148 3.8276 29.4934 3.07746 28.7432C2.32731 27.9931 1.90588 26.9757 1.90588 25.9148V5.91479C1.90588 3.71479 3.70588 1.91479 5.90588 1.91479H33.9059C34.9667 1.91479 35.9842 2.33622 36.7343 3.08637C37.4845 3.83651 37.9059 4.85393 37.9059 5.91479V25.9148C37.9052 26.6162 37.72 27.3052 37.369 27.9125C37.0179 28.5198 36.5134 29.0241 35.9059 29.3748" stroke="white" stroke-width="2" stroke-linecap="round" stroke-linejoin="round"/>
<path d="M7.90588 9.91479H31.9059" stroke="white" stroke-width="2" stroke-linecap="round" stroke-linejoin="round"/>
<path d="M7.90588 15.9148H13.9059" stroke="white" stroke-width="2" stroke-linecap="round" stroke-linejoin="round"/>
<path d="M7.90588 21.9148H11.9059" stroke="white" stroke-width="2" stroke-linecap="round" stroke-linejoin="round"/>
</svg>
