<svg width="34" height="39" viewBox="0 0 34 39" fill="none" xmlns="http://www.w3.org/2000/svg">
<path d="M31.5528 21.6957C29.3928 19.7757 26.2728 19.5357 23.3928 19.2957L25.7928 24.3357L17.1528 33.2157L8.51278 24.5757L10.9128 19.2957C8.03278 19.2957 4.91278 19.7757 2.75278 21.6957C0.832783 23.3757 0.352783 26.2557 0.352783 29.1357C0.352783 31.2957 0.352783 33.6957 0.352783 35.8557C0.352783 35.8557 8.51278 38.7357 17.1528 38.4957C25.7928 38.7357 33.9528 35.8557 33.9528 35.8557C33.9528 33.6957 33.9528 31.2957 33.9528 29.1357C33.9528 26.4957 33.4728 23.6157 31.5528 21.6957Z" fill="#BE2E21"/>
<path d="M8.99281 17.6157C10.9128 17.6157 13.7928 16.6557 14.2728 15.9357C12.3528 13.5357 10.6728 11.1357 12.3528 6.5757C12.3528 6.5757 14.9928 9.4557 22.6728 10.1757C22.6728 12.5757 21.4728 14.2557 20.0328 15.9357C20.5128 16.6557 23.3928 17.6157 25.3128 17.6157C27.2328 17.6157 28.6728 17.1357 28.6728 16.4157C28.6728 15.6957 25.5528 13.2957 24.8328 11.1357C24.1128 8.9757 24.5928 6.5757 23.6328 3.6957C22.1928 0.335703 18.8328 0.0957031 17.1528 0.0957031C15.4728 0.0957031 12.1128 0.335703 10.6728 3.6957C9.71281 6.5757 10.1928 8.9757 9.47281 11.1357C8.75281 13.2957 5.63281 15.6957 5.63281 16.4157C5.63281 17.1357 7.07281 17.6157 8.99281 17.6157Z" fill="#BE2E21"/>
<path d="M17.1528 21.6957L11.6328 19.2957L17.1528 33.2157L22.6728 19.2957L17.1528 21.6957Z" fill="#BE2E21"/>
</svg>
