<svg width="24" height="24" viewBox="0 0 24 24" fill="none" xmlns="http://www.w3.org/2000/svg">
<path d="M17 16C15.3 16 14 17.3 14 19C14 20.7 15.3 22 17 22C18.7 22 20 20.7 20 19C20 17.3 18.7 16 17 16ZM17 20.2C16.3 20.2 15.7 19.6 15.7 18.9C15.7 18.2 16.3 17.6 17 17.6C17.7 17.6 18.3 18.2 18.3 18.9C18.3 19.6 17.7 20.2 17 20.2ZM6 16C4.3 16 3 17.3 3 19C3 20.7 4.3 22 6 22C7.7 22 9 20.7 9 19C9 17.3 7.7 16 6 16ZM6 20.2C5.3 20.2 4.7 19.6 4.7 18.9C4.7 18.2 5.3 17.6 6 17.6C6.7 17.6 7.3 18.2 7.3 18.9C7.3 19.6 6.7 20.2 6 20.2ZM13 14H21L20 12H13V14Z" fill="#BE2E21"/>
<path d="M19 17H21V19H19V17Z" fill="#BE2E21"/>
<path d="M19.3 8.6C19.1 8.2 18.8 8 18.4 8H13V19H15V10H17.8L20 14.5V19H22V14L19.3 8.6Z" fill="#BE2E21"/>
<path d="M13 19H8V17H13V7.8L10.2 5H4V19C2.9 19 2 18.1 2 17V5C2 3.9 2.9 3 4 3H11L15 7V17C15 18.1 14.1 19 13 19Z" fill="#BE2E21"/>
<path d="M14.7 8.00005H10V3.30005L14.7 8.00005Z" fill="#BE2E21"/>
<path opacity="0.3" d="M14 13V7L11 4H3V18H4.3C4.6 17.4 5.3 17 6 17C6.7 17 7.4 17.4 7.7 18H15.3C15.6 17.4 16.3 17 17 17C17.7 17 18.4 17.4 18.7 18H21V13H14Z" fill="#BE2E21"/>
</svg>
