<svg width="24" height="24" viewBox="0 0 24 24" fill="none" xmlns="http://www.w3.org/2000/svg">
<path opacity="0.3" d="M19.548 13.991L19.208 14.342L19.276 14.826L19.632 17.574L16.936 18.047L16.454 18.131L16.225 18.563L14.898 20.996L12.438 19.794L12 19.579L11.561 19.794L9.057 20.982L7.774 18.564L7.545 18.132L7.064 18.048L4.34 17.537L4.723 14.826L4.791 14.342L4.451 13.991L2.547 11.977L4.451 10.009L4.791 9.658L4.723 9.174L4.367 6.426L7.064 5.953L7.545 5.869L7.774 5.437L9.101 3.004L11.561 4.206L12 4.42L12.439 4.205L14.899 3.003C14.904 3.001 14.908 3 14.913 3L14.943 3.018L16.226 5.436L16.455 5.868L16.937 5.952L19.661 6.463L19.278 9.174L19.21 9.658L19.55 10.009L21.454 12.023L19.548 13.991Z" fill="#BE2E21"/>
<path d="M8.39819 15.5482L14.4023 7.55127L15.6018 8.45188L9.59774 16.4488L8.39819 15.5482Z" fill="#BE2E21"/>
<path d="M14.5 13C13.672 13 13 13.672 13 14.5C13 15.328 13.672 16 14.5 16C15.328 16 16 15.328 16 14.5C16 13.672 15.328 13 14.5 13ZM9.5 8C8.672 8 8 8.672 8 9.5C8 10.328 8.672 11 9.5 11C10.328 11 11 10.328 11 9.5C11 8.672 10.328 8 9.5 8Z" fill="#BE2E21"/>
<path d="M14.897 21.997C14.75 21.997 14.6 21.964 14.459 21.895L12 20.692H11.999L9.48499 21.884C8.99899 22.114 8.42299 21.922 8.17299 21.449L6.89099 19.031L4.15499 18.52C3.62999 18.421 3.27399 17.927 3.34899 17.397L3.73199 14.686L1.82099 12.664C1.45399 12.275 1.45699 11.666 1.82899 11.282L3.73199 9.31497L3.37499 6.55497C3.30699 6.02497 3.66799 5.53397 4.19399 5.44197L6.89099 4.96797L8.22299 2.52497C8.47899 2.05597 9.05799 1.87097 9.53999 2.10597L12 3.30797L14.459 2.10497C14.758 1.95897 15.139 1.97097 15.426 2.14097C15.583 2.23497 15.741 2.38797 15.827 2.54997L17.109 4.96797L19.844 5.47997C20.369 5.57897 20.725 6.07297 20.65 6.60297L20.267 9.31497L22.178 11.337C22.545 11.726 22.542 12.335 22.17 12.719L20.267 14.687L20.624 17.446C20.692 17.976 20.331 18.467 19.805 18.559L17.108 19.033L15.776 21.476C15.596 21.807 15.253 21.997 14.897 21.997ZM12 18.58C12.15 18.58 12.3 18.614 12.438 18.681L14.478 19.679L15.572 17.663C15.717 17.391 15.978 17.201 16.282 17.147L18.518 16.754L18.218 14.482C18.175 14.177 18.275 13.869 18.489 13.648L18.829 13.296L20.067 12.016L18.489 10.353C18.274 10.132 18.175 9.82397 18.218 9.51897L18.535 7.26997L16.281 6.85297C15.977 6.79997 15.716 6.60997 15.571 6.33697L14.496 4.31097L12.437 5.31897C12.16 5.45397 11.837 5.45397 11.56 5.31897L9.51999 4.32097L8.42799 6.33697C8.28299 6.60997 8.02099 6.79997 7.71799 6.85297L5.48099 7.24597L5.78199 9.51697C5.82599 9.82297 5.72499 10.132 5.50999 10.355L3.93199 11.986L5.50999 13.647C5.72599 13.87 5.82599 14.179 5.78199 14.485L5.46399 16.73L7.71799 17.147C8.02199 17.2 8.28299 17.39 8.42799 17.663L9.49199 19.669L11.561 18.681C11.7 18.613 11.85 18.58 12 18.58Z" fill="#BE2E21"/>
</svg>
