<svg width="631" height="547" viewBox="0 0 631 547" fill="none" xmlns="http://www.w3.org/2000/svg">
<path opacity="0.05" fill-rule="evenodd" clip-rule="evenodd" d="M-95.8241 466.851L-23.844 547L10.5603 398.208C16.2075 376.109 32.4541 363.909 56.2158 363.909H93.8348L137.275 182.424H90.4465C76.5891 182.424 66.9455 185.724 58.6919 196.274L79.8905 103.925C85.4942 79.4377 105.998 69.5819 131.367 69.5819H224.919C217.288 78.1799 212.069 88.7432 209.928 100.194L164.549 294.241C161.767 306.581 159.941 332.607 194.367 332.607H582.395L625.862 300.628C632.729 295.24 631.208 291.286 625.862 291.286H276.128C264.392 291.286 243.354 289.852 247.831 270.604L260.176 217.334C265.018 221.431 271.225 223.556 277.563 223.287H304.773L329.636 113.967H305.12C305.12 113.967 283.909 115.922 289.951 90.287L294.761 69.5819H352.216C362.12 69.5819 368.679 59.7262 362.12 51.7374L319.549 0.938965H41.533C-4.33955 0.938965 -32.0977 28.6827 -40.3078 64.6324L-113.939 378.714C-126.15 428.661 -114.283 443.593 -99.3579 462.374C-98.1952 463.837 -97.0139 465.323 -95.8241 466.851Z" fill="#1B1B1B"/>
</svg>
