<svg width="38" height="40" viewBox="0 0 38 40" fill="none" xmlns="http://www.w3.org/2000/svg">
<path d="M37.3773 28.6232C37.3667 28.605 37.3523 28.5901 37.3408 28.5728L37.3417 28.5723L24.4273 6.20481L24.4201 6.20865C24.3097 6.03201 24.1523 5.90289 23.9742 5.82417L23.9925 5.81361L20.1592 3.59985L24.4173 10.9751L34.1027 27.7506L34.1017 27.7511C34.1133 27.7683 34.1277 27.7832 34.1382 27.8015C34.4152 28.281 34.2505 28.8944 33.771 29.1719L33.7777 29.1839L19.4445 37.4591L20.0651 38.5338C20.0776 38.5602 20.0862 38.5875 20.1011 38.6135C20.3709 39.0795 20.9579 39.2451 21.4317 38.9979L21.4341 39.0018L37.0173 30.0051L37.0105 29.9931C37.4896 29.7167 37.6537 29.1027 37.3773 28.6232Z" fill="#BE2E21"/>
<path d="M30.4624 28.2286C30.9419 27.9516 31.106 27.3382 30.8296 26.8582C30.819 26.84 30.8046 26.8251 30.7931 26.8078L30.794 26.8073L17.8796 4.4398L17.8724 4.44364C17.762 4.267 17.6046 4.13788 17.4265 4.05916L17.4448 4.0486L12.16 0.997238V1.01836C11.894 0.867158 11.5686 0.842198 11.2739 0.966998L11.2681 0.956918L11.1692 1.01404C11.1673 1.01548 11.1649 1.01548 11.163 1.01692C11.1611 1.01836 11.1596 1.0198 11.1572 1.02076L0.989401 6.89116C0.674521 7.0726 0.499321 7.399 0.491641 7.73788L0.488281 7.73596V13.8387L0.498361 13.8329C0.475801 14.0379 0.512761 14.2515 0.623641 14.444C0.630361 14.4555 0.639001 14.4641 0.646201 14.4752L13.5174 36.7692C13.5299 36.7956 13.5385 36.823 13.5534 36.8489C13.8232 37.315 14.4102 37.4806 14.884 37.2334L14.8864 37.2372L30.4696 28.2406L30.4624 28.2286ZM9.18156 9.21052C8.29404 9.72316 7.15884 9.41932 6.64668 8.5318C6.13404 7.64428 6.43836 6.50956 7.32588 5.99692C8.2134 5.48428 9.34812 5.7886 9.86076 6.6766C10.3734 7.56364 10.0696 8.69884 9.18156 9.21052Z" fill="#BE2E21"/>
</svg>
