<svg width="100%" height="100%" viewBox="0 0 1182 1116" version="1.1" xmlns="http://www.w3.org/2000/svg" xmlns:xlink="http://www.w3.org/1999/xlink" xml:space="preserve" style="fill-rule:evenodd;clip-rule:evenodd;stroke-linejoin:round;stroke-miterlimit:1.41421;"><path id="layer101" d="M118.2,1052.9c-7.3,-2.8 -14.3,-9.9 -17,-17.2l-2.2,-5.8l0,-216.9c0,-128.3 -0.4,-217 -0.9,-217c-0.5,0 -5.5,-4.4 -11.1,-9.7c-24.5,-23.3 -39.1,-49.1 -46.2,-81.4c-1.9,-8.9 -2.2,-13.4 -2.2,-30.9c0,-17.3 0.3,-22 2.1,-30c7.2,-31.7 21.3,-57.5 43.3,-78.8c19.4,-18.9 46.1,-33.7 70.8,-39.2l5.2,-1.2l0,-50.9c0,-28.9 0.5,-55.2 1.1,-60.7c5.2,-48.6 33.4,-91.5 76.3,-116c15.2,-8.7 30.3,-14.1 49.9,-17.9c8.7,-1.7 25.4,-1.8 300.2,-1.8c310.2,0 294.9,-0.2 313.5,4.7c21.7,5.7 36.9,13.2 55.4,27.2c27.6,20.8 49,55.1 56.1,90.1c2.8,13.7 3.5,28.5 3.5,77.6l0,47.6l10.2,2.6c25.1,6.6 51,22.4 69.9,42.5c39.4,42 52,100.6 33.3,154.4c-8.8,25.3 -25.4,49.7 -44.9,66.1l-7,5.9l-0.5,217.6l-0.5,217.7l-2.6,5.6c-3.2,6.8 -8.7,12.4 -14.8,15.3l-4.6,2.1l-465.5,0.2c-465.1,0.2 -465.5,0.2 -470.8,-1.8Zm163.6,-326.6l-0.3,-267.8l-2.8,-8.8c-6.6,-21.3 -19.4,-39.1 -36.2,-50.7c-6.4,-4.4 -21.7,-11.5 -29.5,-13.6c-9.1,-2.5 -35.8,-2.6 -44.7,-0.1c-8.8,2.4 -21.5,8.1 -27.9,12.3c-13.8,9.1 -27.8,25.8 -33.7,39.9c-6.2,15 -7.2,19.9 -7.2,37c0,14.8 0.2,16.7 2.8,25c7.4,23.3 20.5,40.2 41.7,53.9c4.8,3.1 8,6.1 10.1,9.3c6.3,10.1 5.9,-5.4 5.9,223l0,208.3l122,0l-0.2,-267.7Zm550.2,145.2l0,-122.5l-244.5,0l-244.5,0l0,245l489,0l0,-122.5Zm184.2,-88.7l0.3,-211.3l2.7,-5c3.2,-6 6.9,-9.6 16.4,-15.8c3.9,-2.6 11.2,-9 16.2,-14.2c7.8,-8.1 9.9,-11.1 14.7,-20.7c11.6,-23.6 13.4,-45 5.8,-69.3c-3.1,-9.9 -5,-13.7 -12,-24.3c-10.1,-15.2 -29.3,-29.4 -48.7,-35.7c-13,-4.2 -36.5,-4.5 -50.6,-0.5c-33,9.3 -57.2,35 -65.7,69.6c-1.6,6.4 -1.8,27.4 -2,272.7l-0.3,265.7l123,0l0.2,-211.2Zm-184.2,-201.5c0,-109.6 0.4,-123.1 4,-139.4c8.6,-38.5 31.8,-72.6 64.5,-94.6c13.2,-8.9 37.6,-19.4 50.8,-21.8l3.9,-0.8l-0.5,-53.1c-0.4,-48.2 -0.6,-53.9 -2.4,-61.6c-8.1,-35.2 -34.4,-61.3 -70.1,-69.7c-7.3,-1.7 -21.2,-1.8 -294.7,-1.8c-320.1,0 -292.3,-0.6 -309.6,6.9c-12.2,5.2 -18.4,9.3 -28,18.4c-14.4,13.6 -23,29 -27,48.6c-1.7,8.2 -1.9,14.1 -1.9,60.7l0,51.6l8.4,2.1c11.1,2.7 22.8,7.5 34.7,14c38.9,21.6 65.3,57.2 76.2,102.7c2.1,8.9 2.1,10.4 2.4,126.8l0.4,117.7l488.9,0l0,-106.7Z" style="fill:#969696;fill-rule:nonzero;"></path></svg>
