<svg width="16" height="18" viewBox="0 0 16 18" fill="none" xmlns="http://www.w3.org/2000/svg">
<path fill-rule="evenodd" clip-rule="evenodd" d="M2 3.5C2 2.67157 2.67157 2 3.5 2C4.32843 2 5 2.67157 5 3.5C5 4.32843 4.32843 5 3.5 5C2.67157 5 2 4.32843 2 3.5ZM3.5 0C1.567 0 0 1.567 0 3.5C0 5.433 1.567 7 3.5 7C5.433 7 7 5.433 7 3.5C7 1.567 5.433 0 3.5 0ZM14.7071 2.29289C15.0976 2.68342 15.0976 3.31658 14.7071 3.70711L2.70711 15.7071C2.31658 16.0976 1.68342 16.0976 1.29289 15.7071C0.902369 15.3166 0.902369 14.6834 1.29289 14.2929L13.2929 2.29289C13.6834 1.90237 14.3166 1.90237 14.7071 2.29289ZM12.5 13C11.6716 13 11 13.6716 11 14.5C11 15.3284 11.6716 16 12.5 16C13.3284 16 14 15.3284 14 14.5C14 13.6716 13.3284 13 12.5 13ZM9 14.5C9 12.567 10.567 11 12.5 11C14.433 11 16 12.567 16 14.5C16 16.433 14.433 18 12.5 18C10.567 18 9 16.433 9 14.5Z" fill="#BE2E21"/>
</svg>
