<svg width="24" height="24" viewBox="0 0 24 24" fill="none" xmlns="http://www.w3.org/2000/svg">
<path d="M17 22.9L12 20.4L7 22.9V13H9V19.7L12 18.2L15 19.7V13H17V22.9Z" fill="#BE2E21"/>
<path d="M14.4 16.5999L12 15.1999L9.5 16.5999L8.4 13.9999L5.5 13.6999L6.1 10.8999L4 8.9999L6.2 7.0999L5.5 4.2999L8.4 3.9999L9.6 1.3999L12 2.7999L14.5 1.3999L15.6 3.9999L18.5 4.2999L17.9 7.0999L20 8.9999L17.8 10.8999L18.4 13.6999L15.6 13.9999L14.4 16.5999ZM12 12.7999L13.5 13.6999L14.2 12.0999L16 11.9999L15.6 10.2999L17 8.9999L15.7 7.7999L16.1 6.0999L14.3 5.8999L13.6 4.2999L12 5.1999L10.5 4.2999L9.8 5.8999L8 5.9999L8.4 7.6999L7 8.9999L8.3 10.1999L7.9 11.8999L9.7 12.0999L10.4 13.6999L12 12.7999Z" fill="#BE2E21"/>
<path opacity="0.3" d="M6.8 5.10005L9.1 4.90005L10 2.80005L12 4.00005L14 2.80005L15 5.00005L17.3 5.20005L16.8 7.50005L18.5 9.00005L16.7 10.6L17.2 12.9L14.9 13.1L14 15.2L12 14L10 15.2L9 13L6.7 12.8L7.2 10.5L5.5 9.00005L7.3 7.40005L6.8 5.10005Z" fill="#BE2E21"/>
</svg>
