<svg width="24" height="24" viewBox="0 0 24 24" fill="none" xmlns="http://www.w3.org/2000/svg">
<path d="M18 21H6V9C6 5.7 8.7 3 12 3C15.3 3 18 5.7 18 9V21ZM8 19H16V9C16 6.8 14.2 5 12 5C9.8 5 8 6.8 8 9V19Z" fill="#BE2E21"/>
<path d="M22 21H16V9C16 5.7 18.2 3 21 3H22V21ZM18 19H20V5.2C18.8 5.8 18 7.2 18 9V19ZM8 21H2V3H3C5.8 3 8 5.7 8 9V21ZM4 19H6V9C6 7.3 5.2 5.8 4 5.2V19Z" fill="#BE2E21"/>
<path opacity="0.3" d="M17 20V9C17 6.2 18.8 4 21 4V20H17ZM7 20V9C7 6.2 5.2 4 3 4V20H7Z" fill="#BE2E21"/>
<path d="M11 4H13V20H11V4Z" fill="#BE2E21"/>
<path d="M7 10H17V12H7V10Z" fill="#BE2E21"/>
</svg>
