<svg width="20" height="21" viewBox="0 0 20 21" fill="none" xmlns="http://www.w3.org/2000/svg">
<path d="M20 5.1374C19.9888 4.70597 19.9554 4.27541 19.9 3.8474C19.8253 3.47253 19.7009 3.10931 19.53 2.7674C19.3513 2.39651 19.1112 2.05843 18.82 1.7674C18.5261 1.47961 18.1886 1.23999 17.82 1.0574C17.4776 0.889847 17.1144 0.768776 16.74 0.697402C16.3161 0.633902 15.8886 0.597162 15.46 0.587402H4.55C4.11857 0.598639 3.68801 0.632016 3.26 0.687402C2.88512 0.762071 2.52191 0.886506 2.18 1.0574C1.8091 1.23614 1.47103 1.47618 1.18 1.7674C0.892204 2.06131 0.652591 2.3988 0.47 2.7674C0.302444 3.10977 0.181373 3.47298 0.11 3.8474C0.0464994 4.27134 0.0097601 4.69885 0 5.1274C0 5.3174 0 5.5874 0 5.6674V15.5074C0 15.6174 0 15.8574 0 16.0374C0.0112364 16.4688 0.0446136 16.8994 0.0999999 17.3274C0.174668 17.7023 0.299103 18.0655 0.47 18.4074C0.648737 18.7783 0.888773 19.1164 1.18 19.4074C1.47391 19.6952 1.81139 19.9348 2.18 20.1174C2.52236 20.285 2.88558 20.406 3.26 20.4774C3.68393 20.5409 4.11145 20.5776 4.54 20.5874H15.45C15.8814 20.5762 16.312 20.5428 16.74 20.4874C17.1149 20.4127 17.4781 20.2883 17.82 20.1174C18.1909 19.9387 18.529 19.6986 18.82 19.4074C19.1078 19.1135 19.3474 18.776 19.53 18.4074C19.6976 18.065 19.8186 17.7018 19.89 17.3274C19.9535 16.9035 19.9902 16.476 20 16.0474C20 15.8574 20 15.6174 20 15.5074V5.6674C20 5.5874 20 5.3174 20 5.1374ZM10.23 17.5874C9.02906 17.5815 7.84913 17.2719 6.8 16.6874L3 17.6874L4 13.9674C3.35511 12.8839 3.00999 11.6483 3 10.3874C3.00398 8.97033 3.4272 7.58612 4.21636 6.40911C5.00552 5.2321 6.12532 4.31493 7.43473 3.77312C8.74414 3.2313 10.1846 3.08907 11.5747 3.36434C12.9648 3.63961 14.2423 4.32006 15.2464 5.32001C16.2505 6.31995 16.9363 7.59466 17.2173 8.98359C17.4984 10.3725 17.3622 11.8136 16.8258 13.1252C16.2894 14.4369 15.3769 15.5605 14.2032 16.3545C13.0295 17.1486 11.647 17.5775 10.23 17.5874ZM10.23 4.4574C9.16981 4.46953 8.13177 4.76239 7.22156 5.30614C6.31135 5.84989 5.56148 6.62513 5.0483 7.55292C4.53512 8.48071 4.27695 9.52792 4.30008 10.5879C4.32322 11.6479 4.62683 12.6829 5.18 13.5874L5.32 13.8174L4.72 16.0074L7 15.3874L7.22 15.5174C8.12957 16.0532 9.1644 16.3395 10.22 16.3474C11.8113 16.3474 13.3374 15.7153 14.4626 14.59C15.5879 13.4648 16.22 11.9387 16.22 10.3474C16.22 8.7561 15.5879 7.22998 14.4626 6.10476C13.3374 4.97954 11.8113 4.3474 10.22 4.3474L10.23 4.4574ZM13.73 12.9774C13.599 13.1959 13.4236 13.3844 13.2152 13.5308C13.0068 13.6772 12.7699 13.7783 12.52 13.8274C12.1465 13.8957 11.7621 13.8716 11.4 13.7574C11.0593 13.6509 10.7254 13.524 10.4 13.3774C9.16374 12.7571 8.10944 11.8268 7.34 10.6774C6.92188 10.1449 6.66819 9.50195 6.61 8.8274C6.60405 8.54719 6.65705 8.26886 6.76558 8.01045C6.87412 7.75204 7.03575 7.51933 7.24 7.3274C7.30016 7.25919 7.37397 7.20436 7.45665 7.16647C7.53934 7.12857 7.62905 7.10845 7.72 7.1074H8C8.11 7.1074 8.26 7.1074 8.4 7.4174C8.54 7.7274 8.91 8.6574 8.96 8.7474C8.98457 8.79537 8.99739 8.8485 8.99739 8.9024C8.99739 8.9563 8.98457 9.00943 8.96 9.0574C8.91579 9.16607 8.85508 9.26726 8.78 9.3574C8.69 9.4674 8.59 9.5974 8.51 9.6774C8.43 9.7574 8.33 9.8574 8.43 10.0374C8.70209 10.4966 9.03888 10.9142 9.43 11.2774C9.85593 11.6538 10.3429 11.9547 10.87 12.1674C11.05 12.2574 11.16 12.2474 11.26 12.1674C11.36 12.0874 11.71 11.6474 11.83 11.4674C11.95 11.2874 12.07 11.3174 12.23 11.3774C12.39 11.4374 13.28 11.8674 13.46 11.9574C13.64 12.0474 13.75 12.0874 13.8 12.1674C13.8434 12.4291 13.8193 12.6976 13.73 12.9474V12.9774Z" fill="#C5C5C5"/>
</svg>
