<svg width="31" height="43" viewBox="0 0 31 43" fill="none" xmlns="http://www.w3.org/2000/svg">
<path d="M12.712 27.3494L21.712 18.3494L12.712 9.34937V15.3494H0.712036V21.3494H12.712V27.3494ZM24.712 0.349365H12.712C9.41204 0.349365 6.71204 3.04937 6.71204 6.34937V12.3494H9.71204V6.34937H27.712V33.3494H9.71204V24.3494H6.71204V36.3494C6.71204 39.6494 9.41204 42.3494 12.712 42.3494H24.712C28.012 42.3494 30.712 39.6494 30.712 36.3494V6.34937C30.712 3.04937 28.012 0.349365 24.712 0.349365ZM20.212 39.3494H17.212C16.312 39.3494 15.712 38.7494 15.712 37.8494C15.712 36.9494 16.312 36.3494 17.212 36.3494H20.212C21.112 36.3494 21.712 36.9494 21.712 37.8494C21.712 38.7494 21.112 39.3494 20.212 39.3494Z" fill="white"/>
</svg>
