<svg width="141" height="66" viewBox="0 0 141 66" fill="none" xmlns="http://www.w3.org/2000/svg">
<path fill-rule="evenodd" clip-rule="evenodd" d="M12.1318 64.2711L3.71124 54.8913C1.78523 52.4168 0.0523168 50.8772 1.59211 44.5766L10.2058 7.81953C11.1663 3.61233 14.4136 0.365479 19.78 0.365479H52.3037L57.2839 6.31042C58.0512 7.24536 57.2839 8.39878 56.1252 8.39878H30.2892C27.3214 8.39878 24.9228 9.5522 24.2672 12.418L21.7873 23.2256C22.7529 21.9909 23.881 21.6047 25.5021 21.6047H30.9803L25.8985 42.8439H21.4976C18.7179 42.8439 16.8173 44.2717 16.1566 46.858L12.1318 64.2711Z" fill="#1B1B1B"/>
<path d="M12.1318 64.2711L3.71124 54.8913C1.78523 52.4168 0.0523168 50.8772 1.59211 44.5766L10.2058 7.81953C11.1663 3.61233 14.4136 0.365479 19.78 0.365479H52.3037L57.2839 6.31042C58.0512 7.24536 57.2839 8.39878 56.1252 8.39878H30.2892C27.3214 8.39878 24.9228 9.5522 24.2672 12.418L21.7873 23.2256C22.7529 21.9909 23.881 21.6047 25.5021 21.6047H30.9803L25.8985 42.8439H21.4976C18.7179 42.8439 16.8173 44.2717 16.1566 46.858L12.1318 64.2711Z" stroke="white" stroke-width="0.420593" stroke-miterlimit="22.93"/>
<path fill-rule="evenodd" clip-rule="evenodd" d="M82.9716 39.277L88.0535 35.5373C88.8564 34.9072 88.6785 34.4449 88.0535 34.4449H47.1651C45.793 34.4449 43.3334 34.2772 43.8568 32.0262L45.3 25.7967C45.8661 26.2758 46.5918 26.5243 47.3328 26.4929H50.514L53.4208 13.7087H50.5546C50.5546 13.7087 48.0747 13.9373 48.7811 10.9395L51.1086 0.919434L42.2509 7.52493C40.7734 8.64519 39.7661 10.2755 39.4254 12.098L34.12 34.7904C33.7948 36.2334 33.5813 39.277 37.6061 39.277H82.9716Z" fill="#BE2E21"/>
<path fill-rule="evenodd" clip-rule="evenodd" d="M134.913 41.2128L133.896 45.8874H130.293L126.314 64.5658H120.216L124.195 45.8874H120.602L121.619 41.2128H134.913ZM115.282 64.5861H110.2L112.471 53.9462L107.044 64.5658H101.708L106.688 41.1925H111.77L109.524 51.7358L115.175 41.1925H120.257L115.282 64.5861ZM97.0936 45.2269L95.8283 51.1668H96.2653C96.4902 51.1847 96.7164 51.158 96.9309 51.0882C97.1454 51.0185 97.3441 50.907 97.5154 50.7603C97.8869 50.259 98.1247 49.6715 98.2066 49.053L98.6131 47.1323C98.7859 46.3346 98.7707 45.8112 98.5725 45.5775C98.3743 45.3438 97.8813 45.2066 97.0936 45.2066V45.2269ZM91.8695 41.2331H97.9677C99.2251 41.185 100.483 41.3168 101.703 41.6244C102.399 41.7934 103.019 42.1883 103.466 42.7473C103.813 43.2743 103.991 43.8949 103.974 44.5257C103.933 45.6187 103.781 46.7047 103.522 47.7675L103.09 49.7999C102.901 50.9452 102.51 52.0478 101.937 53.057C101.436 53.7771 100.726 54.3267 99.9039 54.6321C98.8364 55.027 97.7029 55.2133 96.5651 55.1809H94.9339L92.9672 64.5658H86.8944L91.8695 41.2331ZM82.2547 47.234C82.4441 46.5545 82.5315 45.8507 82.5139 45.1456C82.463 44.8458 82.2496 44.6934 81.8735 44.6934C81.7196 44.6899 81.5668 44.7216 81.4268 44.7858C81.2869 44.8501 81.1633 44.9453 81.0656 45.0643C80.8419 45.3031 80.6031 46.0297 80.349 47.234L78.0266 58.1127C77.8077 58.9325 77.6832 59.7747 77.6556 60.6228C77.6963 60.9429 77.925 61.1004 78.3264 61.1004C78.5148 61.1097 78.7017 61.063 78.8636 60.9662C79.0254 60.8695 79.1551 60.727 79.2361 60.5567C79.5703 59.7123 79.8155 58.8353 79.9679 57.9399L82.2547 47.234ZM86.6911 54.9065C86.1863 57.254 85.7781 58.9138 85.4664 59.886C85.1308 60.8852 84.581 61.7991 83.8555 62.5638C83.0867 63.3816 82.146 64.0185 81.1011 64.4286C79.9526 64.8731 78.7296 65.0939 77.4981 65.079C76.3888 65.1059 75.2866 64.8945 74.2661 64.4591C73.3967 64.101 72.6784 63.4528 72.2333 62.6248C71.8048 61.805 71.628 60.877 71.7251 59.9572C71.82 58.9917 72.1215 57.3082 72.6297 54.9065L73.4834 50.9127C73.9815 48.5652 74.3914 46.902 74.7133 45.923C75.0443 44.9244 75.5927 44.0115 76.3191 43.2503C77.0877 42.4336 78.0286 41.7983 79.0735 41.3906C80.222 40.9461 81.445 40.7253 82.6765 40.7402C83.7868 40.7147 84.89 40.9242 85.9136 41.3551C86.7815 41.7179 87.4989 42.3671 87.9463 43.1944C88.3778 44.0132 88.5547 44.9421 88.4545 45.862C88.2389 47.5598 87.937 49.2456 87.55 50.9127L86.6911 54.9065ZM62.7608 54.0529L61.3684 60.5516C61.969 60.5944 62.5683 60.4526 63.086 60.1452C63.3757 59.9114 63.6196 59.3169 63.8178 58.3769L64.2853 56.1971C64.4937 55.1809 64.5191 54.5915 64.3514 54.3831C64.1837 54.1748 63.6552 54.063 62.7608 54.0325V54.0529ZM64.6411 45.2269L63.5332 50.3893H64.143C64.3678 50.4154 64.5956 50.3896 64.8088 50.3138C65.022 50.2381 65.215 50.1144 65.3729 49.9524C65.5965 49.6577 65.881 48.8193 66.1555 47.4372C66.295 46.9419 66.3364 46.4241 66.2774 45.9129C66.2624 45.7936 66.2172 45.6801 66.146 45.5832C66.0749 45.4863 65.9802 45.4091 65.8709 45.359C65.4703 45.2501 65.0562 45.1987 64.6411 45.2066V45.2269ZM59.4119 41.2331H65.4745C66.9065 41.1759 68.3392 41.3265 69.728 41.6803C70.1731 41.8182 70.5829 42.0515 70.9287 42.3639C71.2745 42.6763 71.548 43.0603 71.7302 43.4891C72.1436 44.4004 72.1334 45.8637 71.6997 47.8793C71.4118 49.2342 70.9967 50.1861 70.4547 50.7349C69.9126 51.2836 68.9809 51.6969 67.6597 51.9747C68.9911 52.2931 69.8296 52.8198 70.1752 53.5549C70.5157 54.2967 70.5258 55.4197 70.2057 56.9389L69.7432 59.1035C69.5379 60.3431 69.0999 61.5327 68.4524 62.6095C67.968 63.3407 67.2523 63.8882 66.4197 64.1643C65.571 64.4438 63.9296 64.5861 61.4853 64.5861H54.4469L59.4119 41.2331ZM48.4859 56.2479C48.7366 53.6057 49.1228 50.3402 49.6446 46.4515C48.0794 50.9161 47.0003 54.1816 46.4075 56.2479H48.4859ZM54.8992 41.2331L53.4001 64.6064H47.1799L47.7745 60.4043H45.5944L44.3391 64.6064H38.0529L46.1127 41.2331H54.8992ZM24.9164 57.0863L26.6798 48.804H26.1716C25.916 48.8223 25.6675 48.8964 25.4436 49.021C25.2197 49.1457 25.0259 49.3179 24.8757 49.5256C24.4243 50.0807 24.1217 50.7417 23.9966 51.4462L23.3766 54.4543C23.1986 55.0803 23.2199 55.7463 23.4376 56.3597C23.5017 56.5714 23.6332 56.7564 23.812 56.8867C23.9909 57.0169 24.2073 57.0852 24.4285 57.0812L24.9164 57.0863ZM33.835 54.4543L34.4753 51.4056C34.6509 50.7741 34.6296 50.104 34.4143 49.4849C34.3439 49.272 34.2074 49.0872 34.0246 48.9574C33.8417 48.8276 33.6222 48.7596 33.398 48.7634H32.778L31.0146 57.0457H31.6346C31.8935 57.0296 32.1458 56.9566 32.3733 56.8319C32.6008 56.7072 32.798 56.5338 32.9508 56.3241C33.394 55.7825 33.6976 55.1405 33.835 54.4543ZM40.1873 53.1433C39.9751 54.2684 39.6674 55.3733 39.2675 56.4461C38.8493 57.413 38.229 58.2793 37.4482 58.9867C36.1777 60.1553 34.1348 60.738 31.3195 60.7346H30.2472L29.424 64.6013H23.3258L24.149 60.7346H23.2089C20.3834 60.7346 18.5844 60.1519 17.812 58.9867C17.3153 58.2332 17.0552 57.3484 17.065 56.4461C17.1294 55.3316 17.2996 54.2257 17.5731 53.1433L17.6595 52.7368C17.8685 51.611 18.1763 50.5059 18.5794 49.4341C18.9988 48.4665 19.6209 47.6002 20.4037 46.8935C21.6539 45.7587 23.6968 45.1913 26.5324 45.1913C26.7459 45.1913 27.0406 45.1913 27.4827 45.1507L28.3212 41.1976H34.4194L33.5758 45.1507C34.084 45.1761 34.4143 45.1913 34.6379 45.1913C37.4736 45.1913 39.2709 45.7587 40.0298 46.8935C40.5305 47.6451 40.791 48.5311 40.7768 49.4341C40.7094 50.5483 40.5392 51.6539 40.2686 52.7368L40.1873 53.1433Z" fill="white"/>
<path d="M134.913 41.2128L133.896 45.8874H130.293L126.314 64.5658H120.216L124.195 45.8874H120.602L121.619 41.2128H134.913ZM115.282 64.5861H110.2L112.471 53.9462L107.044 64.5658H101.708L106.688 41.1925H111.77L109.524 51.7358L115.175 41.1925H120.257L115.282 64.5861ZM97.0936 45.2269L95.8283 51.1668H96.2653C96.4902 51.1847 96.7164 51.158 96.9309 51.0882C97.1454 51.0185 97.3441 50.907 97.5154 50.7603C97.8869 50.259 98.1247 49.6715 98.2066 49.053L98.6131 47.1323C98.7859 46.3346 98.7707 45.8112 98.5725 45.5775C98.3743 45.3438 97.8813 45.2066 97.0936 45.2066V45.2269ZM91.8695 41.2331H97.9677C99.2251 41.185 100.483 41.3168 101.703 41.6244C102.399 41.7934 103.019 42.1883 103.466 42.7473C103.813 43.2743 103.991 43.8949 103.974 44.5257C103.933 45.6187 103.781 46.7047 103.522 47.7675L103.09 49.7999C102.901 50.9452 102.51 52.0478 101.937 53.057C101.436 53.7771 100.726 54.3267 99.9039 54.6321C98.8364 55.027 97.7029 55.2133 96.5651 55.1809H94.9339L92.9672 64.5658H86.8944L91.8695 41.2331ZM82.2547 47.234C82.4441 46.5545 82.5315 45.8507 82.5139 45.1456C82.463 44.8458 82.2496 44.6934 81.8735 44.6934C81.7196 44.6899 81.5668 44.7216 81.4268 44.7858C81.2869 44.8501 81.1633 44.9453 81.0656 45.0643C80.8419 45.3031 80.6031 46.0297 80.349 47.234L78.0266 58.1127C77.8077 58.9325 77.6832 59.7747 77.6556 60.6228C77.6963 60.9429 77.925 61.1004 78.3264 61.1004C78.5148 61.1097 78.7017 61.063 78.8636 60.9662C79.0254 60.8695 79.1551 60.727 79.2361 60.5567C79.5703 59.7123 79.8155 58.8353 79.9679 57.9399L82.2547 47.234ZM86.6911 54.9065C86.1863 57.254 85.7781 58.9138 85.4664 59.886C85.1308 60.8852 84.581 61.7991 83.8555 62.5638C83.0867 63.3816 82.146 64.0185 81.1011 64.4286C79.9526 64.8731 78.7296 65.0939 77.4981 65.079C76.3888 65.1059 75.2866 64.8945 74.2661 64.4591C73.3967 64.101 72.6784 63.4528 72.2333 62.6248C71.8048 61.805 71.628 60.877 71.7251 59.9572C71.82 58.9917 72.1215 57.3082 72.6297 54.9065L73.4834 50.9127C73.9815 48.5652 74.3914 46.902 74.7133 45.923C75.0443 44.9244 75.5927 44.0115 76.3191 43.2503C77.0877 42.4336 78.0286 41.7983 79.0735 41.3906C80.222 40.9461 81.445 40.7253 82.6765 40.7402C83.7868 40.7147 84.89 40.9242 85.9136 41.3551C86.7815 41.7179 87.4989 42.3671 87.9463 43.1944C88.3778 44.0132 88.5547 44.9421 88.4545 45.862C88.2389 47.5598 87.937 49.2456 87.55 50.9127L86.6911 54.9065ZM62.7608 54.0529L61.3684 60.5516C61.969 60.5944 62.5683 60.4526 63.086 60.1452C63.3757 59.9114 63.6196 59.3169 63.8178 58.3769L64.2853 56.1971C64.4937 55.1809 64.5191 54.5915 64.3514 54.3831C64.1837 54.1748 63.6552 54.063 62.7608 54.0325V54.0529ZM64.6411 45.2269L63.5332 50.3893H64.143C64.3678 50.4154 64.5956 50.3896 64.8088 50.3138C65.022 50.2381 65.215 50.1144 65.3729 49.9524C65.5965 49.6577 65.881 48.8193 66.1555 47.4372C66.295 46.9419 66.3364 46.4241 66.2774 45.9129C66.2624 45.7936 66.2172 45.6801 66.146 45.5832C66.0749 45.4863 65.9802 45.4091 65.8709 45.359C65.4703 45.2501 65.0562 45.1987 64.6411 45.2066V45.2269ZM59.4119 41.2331H65.4745C66.9065 41.1759 68.3392 41.3265 69.728 41.6803C70.1731 41.8182 70.5829 42.0515 70.9287 42.3639C71.2745 42.6763 71.548 43.0603 71.7302 43.4891C72.1436 44.4004 72.1334 45.8637 71.6997 47.8793C71.4118 49.2342 70.9967 50.1861 70.4547 50.7349C69.9126 51.2836 68.9809 51.6969 67.6597 51.9747C68.9911 52.2931 69.8296 52.8198 70.1752 53.5549C70.5157 54.2967 70.5258 55.4197 70.2057 56.9389L69.7432 59.1035C69.5379 60.3431 69.0999 61.5327 68.4524 62.6095C67.968 63.3407 67.2523 63.8882 66.4197 64.1643C65.571 64.4438 63.9296 64.5861 61.4853 64.5861H54.4469L59.4119 41.2331ZM48.4859 56.2479C48.7366 53.6057 49.1228 50.3402 49.6446 46.4515C48.0794 50.9161 47.0003 54.1816 46.4075 56.2479H48.4859ZM54.8992 41.2331L53.4001 64.6064H47.1799L47.7745 60.4043H45.5944L44.3391 64.6064H38.0529L46.1127 41.2331H54.8992ZM24.9164 57.0863L26.6798 48.804H26.1716C25.916 48.8223 25.6675 48.8964 25.4436 49.021C25.2197 49.1457 25.0259 49.3179 24.8757 49.5256C24.4243 50.0807 24.1217 50.7417 23.9966 51.4462L23.3766 54.4543C23.1986 55.0803 23.2199 55.7463 23.4376 56.3597C23.5017 56.5714 23.6332 56.7564 23.812 56.8867C23.9909 57.0169 24.2073 57.0852 24.4285 57.0812L24.9164 57.0863ZM33.835 54.4543L34.4753 51.4056C34.6509 50.7741 34.6296 50.104 34.4143 49.4849C34.3439 49.272 34.2074 49.0872 34.0246 48.9574C33.8417 48.8276 33.6222 48.7596 33.398 48.7634H32.778L31.0146 57.0457H31.6346C31.8935 57.0296 32.1458 56.9566 32.3733 56.8319C32.6008 56.7072 32.798 56.5338 32.9508 56.3241C33.394 55.7825 33.6976 55.1405 33.835 54.4543ZM40.1873 53.1433C39.9751 54.2684 39.6674 55.3733 39.2675 56.4461C38.8493 57.413 38.229 58.2793 37.4482 58.9867C36.1777 60.1553 34.1348 60.738 31.3195 60.7346H30.2472L29.424 64.6013H23.3258L24.149 60.7346H23.2089C20.3834 60.7346 18.5844 60.1519 17.812 58.9867C17.3153 58.2332 17.0552 57.3484 17.065 56.4461C17.1294 55.3316 17.2996 54.2257 17.5731 53.1433L17.6595 52.7368C17.8685 51.611 18.1763 50.5059 18.5794 49.4341C18.9988 48.4665 19.6209 47.6002 20.4037 46.8935C21.6539 45.7587 23.6968 45.1913 26.5324 45.1913C26.7459 45.1913 27.0406 45.1913 27.4827 45.1507L28.3212 41.1976H34.4194L33.5758 45.1507C34.084 45.1761 34.4143 45.1913 34.6379 45.1913C37.4736 45.1913 39.2709 45.7587 40.0298 46.8935C40.5305 47.6451 40.791 48.5311 40.7768 49.4341C40.7094 50.5483 40.5392 51.6539 40.2686 52.7368L40.1873 53.1433Z" fill="#1B1B1B" stroke="#1B1B1B" stroke-width="0.0925305" stroke-miterlimit="22.93"/>
<path fill-rule="evenodd" clip-rule="evenodd" d="M138.344 7.83521C139.869 7.83521 140.154 8.58722 139.935 9.71015L136.693 26.417L57.7568 26.3865C56.7099 26.3865 56.0036 25.7107 56.1916 24.7758L59.4948 7.87586L138.344 7.83521Z" fill="#1B1B1B"/>
<path d="M138.344 7.83521C139.869 7.83521 140.154 8.58722 139.935 9.71015L136.693 26.417L57.7568 26.3865C56.7099 26.3865 56.0036 25.7107 56.1916 24.7758L59.4948 7.87586L138.344 7.83521Z" stroke="#1B1B1B" stroke-width="0.0925305" stroke-miterlimit="22.93"/>
<path fill-rule="evenodd" clip-rule="evenodd" d="M135.755 23.2968H133.021L134.231 17.5805L131.334 23.2968H128.468L131.105 10.7565H133.839L132.65 16.4271L135.669 10.7565H138.403L135.755 23.2968ZM125.947 12.8855L125.277 16.0816H125.51C125.632 16.0911 125.755 16.0762 125.871 16.0378C125.987 15.9994 126.094 15.9383 126.186 15.858C126.386 15.5887 126.513 15.2716 126.552 14.9383L126.765 13.9221C126.857 13.4953 126.852 13.2158 126.765 13.0888C126.679 12.9617 126.369 12.8855 125.947 12.8855ZM123.127 10.7565H126.415C127.099 10.7309 127.783 10.801 128.448 10.9648C128.821 11.0585 129.155 11.2706 129.398 11.5695C129.589 11.853 129.69 12.1878 129.688 12.5298C129.665 13.1171 129.585 13.7008 129.449 14.2727L129.2 15.3295C129.101 15.9459 128.893 16.5396 128.585 17.0825C128.317 17.4719 127.936 17.7684 127.492 17.9311C126.919 18.1444 126.31 18.2444 125.698 18.2258H124.824L123.762 23.307H120.51L123.127 10.7565ZM116.521 10.7565H121.968L121.46 13.2971H119.28L118.772 15.6751H120.805L120.296 18.0683H118.264L117.689 20.8324H120.083L119.575 23.3425H113.903L116.521 10.7565ZM109.574 17.6364L108.822 21.1475C109.145 21.175 109.469 21.0985 109.746 20.929C109.965 20.6563 110.101 20.3265 110.138 19.9788L110.382 18.8051C110.493 18.2969 110.504 17.9413 110.412 17.8295C110.321 17.7177 110.051 17.6516 109.574 17.6364ZM110.565 12.8855L109.98 15.6802H110.311C110.431 15.6948 110.554 15.6813 110.668 15.6408C110.783 15.6002 110.887 15.5337 110.971 15.4464C111.182 15.0212 111.322 14.5648 111.388 14.0948C111.463 13.8255 111.483 13.544 111.449 13.2666C111.44 13.2026 111.415 13.1418 111.377 13.0896C111.339 13.0373 111.288 12.9952 111.23 12.9668C111.013 12.9081 110.789 12.8808 110.565 12.8855ZM107.749 10.7565H111.007C111.778 10.7258 112.551 10.808 113.299 11.0004C113.538 11.0745 113.758 11.1996 113.944 11.3672C114.13 11.5348 114.277 11.7408 114.376 11.9709C114.6 12.479 114.6 13.2463 114.376 14.3336C114.356 14.9062 114.122 15.4505 113.721 15.8589C113.319 16.2673 112.778 16.5099 112.206 16.5389C112.479 16.5672 112.742 16.6557 112.977 16.798C113.212 16.9404 113.412 17.133 113.563 17.362C113.748 17.9542 113.748 18.5888 113.563 19.1811L113.319 20.3446C113.211 21.0105 112.978 21.65 112.633 22.2298C112.371 22.626 111.982 22.9215 111.53 23.0681C110.66 23.2603 109.768 23.3355 108.877 23.2917H105.097L107.749 10.7565ZM100.691 20.6597L102.251 13.2107H101.3V13.3073C100.761 15.8249 99.9871 18.2865 98.9882 20.6597H100.691ZM103.628 25.4614H101.372L101.824 23.2968H96.5693L96.1119 25.4614H93.8606L94.877 20.6749H95.5427C96.2281 19.3704 96.8027 18.0107 97.2604 16.61C97.8688 14.8062 98.3661 12.9667 98.7494 11.102L98.8307 10.726H106.077L103.994 20.6546H104.665L103.628 25.4614ZM88.7381 18.8152C88.8652 17.3925 89.0735 15.6344 89.3429 13.5461C88.5095 15.9444 87.9352 17.7008 87.6202 18.8152H88.7381ZM92.1582 10.7565L91.396 23.3171H88.0521L88.3621 21.0611H87.1882L86.5225 23.3171H83.143L87.4321 10.7565H92.1582ZM85.2063 10.7565L82.5739 23.3171H79.3063L80.4141 18.0226H79.4333L78.3306 23.2968H75.0629L77.6953 10.7565H80.9629L80.0228 15.2482H80.9985L81.9386 10.7565H85.2063ZM69.1833 10.7565H72.456L71.3634 16.0612C71.6493 16.0659 71.9268 15.9647 72.1426 15.7771C72.3583 15.5895 72.4971 15.3287 72.5322 15.045L73.1064 12.5959C73.206 11.9045 73.5248 11.2633 74.0161 10.7667H77.0652C76.7044 11.0715 76.43 11.7016 76.2318 12.6569L75.7947 14.8164C75.5356 16.1171 74.6412 16.8488 73.1268 17.0419C74.5649 17.2197 75.1595 17.9768 74.8546 19.303L74.4226 21.2999C74.2194 22.2552 74.2194 22.931 74.4226 23.3324H71.3989C71.1144 23.0173 71.0686 22.4076 71.2566 21.5031L71.7648 19.054C71.8026 18.9273 71.8108 18.7936 71.7888 18.6632C71.7668 18.5329 71.7151 18.4093 71.6378 18.302C71.5561 18.2051 71.4529 18.1284 71.3365 18.0782C71.2201 18.0279 71.0936 18.0054 70.967 18.0124L69.8337 23.3324H66.5407L69.1833 10.7565ZM64.0201 13.9932C64.1255 13.6286 64.1718 13.2495 64.1573 12.8703C64.1573 12.7077 64.015 12.6264 63.8118 12.6264C63.7296 12.6253 63.6482 12.6425 63.5735 12.6768C63.4987 12.7111 63.4326 12.7615 63.3798 12.8245C63.1747 13.1842 63.045 13.5818 62.9987 13.9932L61.7689 19.8569C61.6542 20.297 61.5894 20.7487 61.5758 21.2034C61.6012 21.3761 61.7231 21.4625 61.9366 21.4625C62.0414 21.472 62.1465 21.4488 62.2376 21.396C62.3286 21.3432 62.401 21.2635 62.4448 21.1678C62.6252 20.714 62.7564 20.2421 62.8361 19.7603L64.0201 13.9932ZM66.4238 18.1191C66.1596 19.3792 65.9428 20.2718 65.7734 20.7969C65.597 21.3353 65.3037 21.8281 64.9145 22.2399C64.5041 22.6853 63.9987 23.0327 63.4357 23.2561C62.8185 23.4947 62.1611 23.612 61.4995 23.6017C60.9016 23.6175 60.3072 23.5048 59.7565 23.2714C59.2942 23.0753 58.9124 22.7276 58.674 22.2856C58.4399 21.8447 58.341 21.3445 58.3895 20.8477C58.4403 20.3294 58.5995 19.425 58.8672 18.1343L59.3194 15.985C59.5837 14.7198 59.7971 13.8306 59.9699 13.3022C60.1443 12.7643 60.4378 12.2728 60.8287 11.8642C61.2387 11.4182 61.7442 11.0708 62.3075 10.848C62.9243 10.6074 63.5818 10.4883 64.2437 10.4974C64.8415 10.4842 65.4353 10.5967 65.9868 10.8277C66.4535 11.0322 66.8357 11.391 67.0692 11.8439C67.3044 12.2825 67.4018 12.7819 67.3487 13.2768C67.3013 13.795 67.1438 14.7012 66.8761 15.9952L66.4238 18.1191Z" fill="white"/>
</svg>
