<svg width="39" height="39" viewBox="0 0 39 39" fill="none" xmlns="http://www.w3.org/2000/svg">
<path d="M13.3417 25.7283L25.3417 13.7283" stroke="white" stroke-width="2" stroke-linecap="round" stroke-linejoin="round"/>
<path d="M14.3417 15.7283C14.894 15.7283 15.3417 15.2806 15.3417 14.7283C15.3417 14.176 14.894 13.7283 14.3417 13.7283C13.7894 13.7283 13.3417 14.176 13.3417 14.7283C13.3417 15.2806 13.7894 15.7283 14.3417 15.7283Z" fill="white" stroke="white" stroke-width="2" stroke-linecap="round" stroke-linejoin="round"/>
<path d="M24.3417 25.7283C24.894 25.7283 25.3417 25.2806 25.3417 24.7283C25.3417 24.176 24.894 23.7283 24.3417 23.7283C23.7894 23.7283 23.3417 24.176 23.3417 24.7283C23.3417 25.2806 23.7894 25.7283 24.3417 25.7283Z" fill="white" stroke="white" stroke-width="2" stroke-linecap="round" stroke-linejoin="round"/>
<path d="M5.34162 10.1282C5.34162 8.96126 5.80519 7.84211 6.63035 7.01695C7.45551 6.19179 8.57467 5.72822 9.74162 5.72822H11.7416C12.9034 5.72755 14.0178 5.26742 14.8416 4.44822L16.2416 3.04822C16.6505 2.63702 17.1367 2.3107 17.6721 2.08803C18.2075 1.86536 18.7817 1.75073 19.3616 1.75073C19.9415 1.75073 20.5157 1.86536 21.0511 2.08803C21.5866 2.3107 22.0727 2.63702 22.4816 3.04822L23.8816 4.44822C24.7054 5.26742 25.8198 5.72755 26.9816 5.72822H28.9816C30.1486 5.72822 31.2677 6.19179 32.0929 7.01695C32.9181 7.84211 33.3816 8.96126 33.3816 10.1282V12.1282C33.3823 13.29 33.8424 14.4044 34.6616 15.2282L36.0616 16.6282C36.4728 17.0371 36.7991 17.5233 37.0218 18.0587C37.2445 18.5941 37.3591 19.1683 37.3591 19.7482C37.3591 20.3281 37.2445 20.9023 37.0218 21.4377C36.7991 21.9732 36.4728 22.4593 36.0616 22.8682L34.6616 24.2682C33.8424 25.092 33.3823 26.2064 33.3816 27.3682V29.3682C33.3816 30.5352 32.9181 31.6543 32.0929 32.4795C31.2677 33.3046 30.1486 33.7682 28.9816 33.7682H26.9816C25.8198 33.7689 24.7054 34.229 23.8816 35.0482L22.4816 36.4482C22.0727 36.8594 21.5866 37.1857 21.0511 37.4084C20.5157 37.6311 19.9415 37.7457 19.3616 37.7457C18.7817 37.7457 18.2075 37.6311 17.6721 37.4084C17.1367 37.1857 16.6505 36.8594 16.2416 36.4482L14.8416 35.0482C14.0178 34.229 12.9034 33.7689 11.7416 33.7682H9.74162C8.57467 33.7682 7.45551 33.3046 6.63035 32.4795C5.80519 31.6543 5.34162 30.5352 5.34162 29.3682V27.3682C5.34096 26.2064 4.88082 25.092 4.06162 24.2682L2.66162 22.8682C2.25042 22.4593 1.9241 21.9732 1.70144 21.4377C1.47877 20.9023 1.36414 20.3281 1.36414 19.7482C1.36414 19.1683 1.47877 18.5941 1.70144 18.0587C1.9241 17.5233 2.25042 17.0371 2.66162 16.6282L4.06162 15.2282C4.88082 14.4044 5.34096 13.29 5.34162 12.1282V10.1282Z" stroke="white" stroke-width="2" stroke-linecap="round" stroke-linejoin="round"/>
</svg>
