<svg width="24" height="25" viewBox="0 0 24 25" fill="none" xmlns="http://www.w3.org/2000/svg">
<path d="M22 7.1374C21.9888 6.70597 21.9554 6.27541 21.9 5.8474C21.8253 5.47253 21.7009 5.10931 21.53 4.7674C21.3513 4.39651 21.1112 4.05843 20.82 3.7674C20.5261 3.47961 20.1886 3.23999 19.82 3.0574C19.4776 2.88985 19.1144 2.76878 18.74 2.6974C18.3161 2.6339 17.8886 2.59716 17.46 2.5874H6.55C6.11857 2.59864 5.68801 2.63202 5.26 2.6874C4.88512 2.76207 4.52191 2.88651 4.18 3.0574C3.8091 3.23614 3.47103 3.47618 3.18 3.7674C2.8922 4.06131 2.65259 4.3988 2.47 4.7674C2.30244 5.10977 2.18137 5.47298 2.11 5.8474C2.0465 6.27134 2.00976 6.69885 2 7.1274C2 7.3174 2 7.5874 2 7.6674V17.5074C2 17.6174 2 17.8574 2 18.0374C2.01124 18.4688 2.04461 18.8994 2.1 19.3274C2.17467 19.7023 2.2991 20.0655 2.47 20.4074C2.64874 20.7783 2.88877 21.1164 3.18 21.4074C3.47391 21.6952 3.81139 21.9348 4.18 22.1174C4.52236 22.285 4.88558 22.406 5.26 22.4774C5.68393 22.5409 6.11145 22.5776 6.54 22.5874H17.45C17.8814 22.5762 18.312 22.5428 18.74 22.4874C19.1149 22.4127 19.4781 22.2883 19.82 22.1174C20.1909 21.9387 20.529 21.6986 20.82 21.4074C21.1078 21.1135 21.3474 20.776 21.53 20.4074C21.6976 20.065 21.8186 19.7018 21.89 19.3274C21.9535 18.9035 21.9902 18.476 22 18.0474C22 17.8574 22 17.6174 22 17.5074V7.6674C22 7.5874 22 7.3174 22 7.1374ZM12.23 19.5874C11.0291 19.5815 9.84913 19.2719 8.8 18.6874L5 19.6874L6 15.9674C5.35511 14.8839 5.00999 13.6483 5 12.3874C5.00398 10.9703 5.4272 9.58612 6.21636 8.40911C7.00552 7.2321 8.12532 6.31493 9.43473 5.77312C10.7441 5.2313 12.1846 5.08907 13.5747 5.36434C14.9648 5.63961 16.2423 6.32006 17.2464 7.32001C18.2505 8.31995 18.9363 9.59466 19.2173 10.9836C19.4984 12.3725 19.3622 13.8136 18.8258 15.1252C18.2894 16.4369 17.3769 17.5605 16.2032 18.3545C15.0295 19.1486 13.647 19.5775 12.23 19.5874Z" fill="#C5C5C5"/>
<path d="M12.23 19.5874C11.0291 19.5815 9.84913 19.2719 8.8 18.6874L5 19.6874L6 15.9674C5.35511 14.8839 5.00999 13.6483 5 12.3874C5.00398 10.9703 5.4272 9.58612 6.21636 8.40911C7.00552 7.2321 8.12532 6.31493 9.43473 5.77312C10.7441 5.2313 12.1846 5.08907 13.5747 5.36434C14.9648 5.63961 16.2423 6.32006 17.2464 7.32001C18.2505 8.31995 18.9363 9.59466 19.2173 10.9836C19.4984 12.3725 19.3622 13.8136 18.8258 15.1252C18.2894 16.4369 17.3769 17.5605 16.2032 18.3545C15.0295 19.1486 13.647 19.5775 12.23 19.5874Z" fill="#C5C5C5"/>
<rect x="5" y="5.5874" width="14" height="14" fill="white"/>
<path d="M11.9943 2.5874C10.0165 2.5874 8.08312 3.17389 6.43863 4.27271C4.79413 5.37152 3.51241 6.93331 2.75553 8.76057C1.99866 10.5878 1.80062 12.5985 2.18648 14.5383C2.57233 16.4781 3.52474 18.2599 4.92326 19.6585C6.32179 21.057 8.10362 22.0094 10.0434 22.3953C11.9832 22.7811 13.9939 22.5831 15.8212 21.8262C17.6484 21.0693 19.2102 19.7876 20.309 18.1431C21.4078 16.4986 21.9943 14.5652 21.9943 12.5874C21.9944 11.2742 21.7359 9.97374 21.2333 8.76044C20.7308 7.54713 19.9942 6.4447 19.0656 5.51609C18.137 4.58748 17.0346 3.85089 15.8213 3.34839C14.608 2.84588 13.3076 2.58729 11.9943 2.5874V2.5874ZM15.1738 17.7399C15.1364 17.8332 15.0795 17.9175 15.0068 17.987C14.9342 18.0565 14.8475 18.1097 14.7526 18.143C14.6577 18.1763 14.5568 18.1889 14.4566 18.18C14.3565 18.1711 14.2594 18.1409 14.1718 18.0914L11.4572 15.982L9.71485 17.5894C9.67442 17.6193 9.62713 17.6385 9.57733 17.6453C9.52752 17.6521 9.47681 17.6463 9.42985 17.6283L9.76385 14.6399L9.77454 14.6484L9.78137 14.5894C9.78137 14.5894 14.6664 10.1419 14.8654 9.95236C15.0668 9.76336 15.0004 9.72236 15.0004 9.72236C15.0118 9.49183 14.6388 9.72236 14.6388 9.72236L8.16633 13.8864L5.47084 12.9684C5.47084 12.9684 5.05684 12.8199 5.01784 12.4934C4.97684 12.1694 5.48433 11.9934 5.48433 11.9934L16.2013 7.73589C16.2013 7.73589 17.0823 7.34337 17.0823 7.9934L15.1738 17.7399Z" fill="#C5C5C5"/>
</svg>
