<svg width="41" height="41" viewBox="0 0 41 41" fill="none" xmlns="http://www.w3.org/2000/svg">
<path d="M38.684 0.346924H2.68396C2.15353 0.346924 1.64482 0.557637 1.26975 0.93271C0.894674 1.30778 0.68396 1.81649 0.68396 2.34692V38.3469C0.68396 38.8774 0.894674 39.3861 1.26975 39.7611C1.64482 40.1362 2.15353 40.3469 2.68396 40.3469H38.684C39.2144 40.3469 39.7231 40.1362 40.0982 39.7611C40.4732 39.3861 40.684 38.8774 40.684 38.3469V2.34692C40.684 1.81649 40.4732 1.30778 40.0982 0.93271C39.7231 0.557637 39.2144 0.346924 38.684 0.346924ZM12.684 36.3469H4.68396V4.34692H12.684V36.3469ZM36.684 36.3469H16.684V22.3469H36.684V36.3469ZM36.684 18.3469H16.684V4.34692H36.684V18.3469Z" fill="white"/>
</svg>
